<svg version="1.0" id="Ebene_1" xmlns="http://www.w3.org/2000/svg" x="0" y="0" viewBox="0 0 500 533.9" xml:space="preserve"><style>.st2{fill:#f5d1ac}.st3{fill:#444053}.st4{fill:#b07473}.st5{opacity:.1;enable-background:new}.st7{fill:#67647e}.st8{fill:#2f2e41}.st9{fill:#e1e7ef}.st12{opacity:.1}.st13{fill:#731850}.st16{fill:#d39999}.st17{fill:#fdc2cc}.st18{opacity:.05;enable-background:new}.st19{fill:#7e5659}.st20{fill:#42210b}.st21{fill:#65617d}</style><path d="M290.5 177.2c-32-1.2-62.6-11.5-91.7-22.8s-58-23.9-89.3-29.9c-20.1-3.8-43.1-4.4-59.3 6.4-15.6 10.4-20.7 28.3-23.4 45-2 12.5-3.2 25.6 2.3 37.3 3.9 8.2 10.8 15 15.6 22.8 16.6 27.1 4.8 60.5-13.2 87-8.4 12.4-18.2 24.3-24.7 37.5s-9.5 28.3-3.8 41.8c5.7 13.4 19 23.4 33.6 30.5C66.2 447 101 451.2 135 453.5c75.2 5.2 150.8 3 226.2.7 27.9-.8 56-1.7 83.4-6 15.2-2.3 31-6.2 42-15.3a35.2 35.2 0 008.1-46c-15.8-24.5-59.4-30.6-70.5-57-6-14.4.2-30.5 9-44 19-28.8 50.7-54 52.4-87 1.2-22.6-14.1-45.3-37.7-56-24.7-11.1-59-9.8-77.2 8.8-18.9 19-51.8 26.4-80.2 25.5z" fill="#e8eaf1"/><linearGradient id="SVGID_1_" gradientUnits="userSpaceOnUse" x1="262.6" y1="182.5" x2="262.6" y2="249.4" gradientTransform="matrix(1 0 0 -1 -31.2 402.6)"><stop offset="0" stop-color="gray" stop-opacity=".3"/><stop offset=".5" stop-color="gray" stop-opacity=".1"/><stop offset="1" stop-color="gray" stop-opacity=".1"/></linearGradient><path d="M283.6 163.8c.8 15-.2 47.3-.2 47.3l-2.1 9-.8-30.6-.8-28.9 3.9 3.2zM187 153.4s3.8 47.7 0 54.6c-1.1 2-2 5.4-2.8 9.4-1.2-3.3-3.9-11.1-3-15.2 1.3-5.3-2.4-19.3-2.4-19.6 0-.3-.3-7.8 2.3-13.5 2.7-5.7 1-8.1 1-8.1s2.2-9.4 4.9-7.6z" fill="url(#SVGID_1_)"/><path class="st2" d="M196.4 260.7c-3.4 14.6-16.6-7.4-19.6-12.7l-.6-1.1 1.5-6.7 7.5-3.1c1.2.6 2.4 1.3 3.4 2.2a20.4 20.4 0 017.8 21.4zM298.8 236.9l-.1.3-.1.3c-1.3 4.6-9 30.2-16.4 23.1C274 253 278 235 278 235l17.1-1.8 3.4 3.5.3.3z"/><path class="st3" d="M288.9 363l.4 49c-6.7 11.2-6.2 21-6.2 21l-22 .9c-5.5-3.6-1.6-13.7-1.6-13.7v-25.3s-3.4-24.6-1.8-31.4-7-19.5-7-19.5l-1.1-13.7c-4.2-5.5-6.2-35.9-6.2-35.9l-4.5-15.3c.2.7 2.5 13.5 0 15.8-2.4 2.4-3.4 12.8-3.4 12.8s2.4 28.8 0 34.6c-2.4 5.9.7 9.2.7 9.2l.4 29.9s-2 8 .2 19.3c2.3 11.4 0 28.9 0 28.9h-23.7l.1-12.3-3.8-10.3s-2.7-42.7-4.7-52a23.2 23.2 0 012.1-16s-4.3-7.1-4.1-12-3.4-14.5-3.4-14.5l-5.1-34.7c.1-6.7-.7-13.4-2.6-19.8-3-10-7.3-22.9-7.3-22.9l5 .4 25 2.3s61-4.1 63.7-.7c.5 1.1 1 2.3 1.1 3.5 2.7 12.3 6.4 50.8 6.4 50.8s7.3 30 4.2 33c-3.2 3-2.8 12.7-2.8 12.7 4.7 9.1 2 26 2 26z"/><path class="st4" d="M237.4 448.1c-.2 2.8-3.3 3-3.3 3-8.9 1.3-10.8 4.8-10.8 4.8s-8.5 8.5-21.4 7.2c-11-1-9.9-3-9.3-6.6l.1-2c0-5 3.8-6.4 9.8-10.1s5.8-6.9 8.2-9.6 2.8-8 2.8-8c2.7-4.9 9.8.8 9.8.8.4 1.7 11 1.5 11 1.5s1.3 5.6 2 6a54.3 54.3 0 011 13.1z"/><path class="st5" d="M237.4 448.1c-.2 2.8-3.3 3-3.3 3-8.9 1.3-10.8 4.8-10.8 4.8s-8.5 8.5-21.4 7.2c-11-1-9.9-3-9.3-6.6 4.9 1.2 14.2 3 19.7 0l13-7 12-6v4.6z"/><path class="st4" d="M304.5 462.8c-.6 1-1.6 2-2.7 2.3h-.3c-3.6.8-17.6.8-17.6.8s-14.2-11-18.5-11.2c-4.3-.3-6.6-4-6.6-4l.4-5.5c.3-3.5.9-7.6 2-8.7 1.8-2 2.2-4.6 6.5-3 0 0 6.1-10.7 13.3-2.4l7.4 11.3s1.4 4.7 10.8 9.7c3.8 2 5.5 4.4 6 6.6.3 1.4 0 2.9-.7 4.1z"/><path class="st5" d="M304.5 462.8l-2.7 2.3h-.3c-3.6.8-17.6.8-17.6.8s-14.2-11-18.5-11.2c-4.3-.3-6.6-4-6.6-4l.4-5.5c4.3 1.3 11 3.6 12.7 6.1 2.7 3.8 11 9 11 9s15.4-1.4 22.3-1.6c.3 1.4 0 2.9-.7 4.1z"/><path class="st2" d="M244.5 79l-20.3 21.4s-24.5-1.8-20.2-9a40.8 40.8 0 002.3-18.2c-.2-6.5-.9-12-.9-12S240 44 237.4 60c-.7 3-.7 6.1-.2 9.1 1.5 8.1 7.3 9.9 7.3 9.9z"/><path class="st5" d="M237.3 60c-.6 3-.6 6.1-.1 9.1a25.3 25.3 0 01-18 7.6c-4.7 0-9.8-3.9-13.5-6l-.3-9.5S240 44 237.3 60z"/><path class="st2" d="M244.5 50a25.4 25.4 0 11-50.8 0 25.4 25.4 0 0150.8 0z"/><path d="M232 254v-16.4l-2.4-.1c1 4.6-1.5 16.1-1.5 16.1-24.2 3.4-34.6-6.1-38.3-11a15 15 0 01-1.7-2.8l9.8-55.2 2.4-81.4 3.5-14.2.8-6.9 2.6 1 15 6.5 17-12.9.2-.1.9-.7 1.4 1.1 3.5 2.8 11.2 72.5s19.4 55.8 23 78.3l.4 2.5c2.4 20.5-47.7 21-47.7 21z" fill="#9c8038"/><circle class="st7" cx="224" cy="91.2" r="1.4"/><circle class="st7" cx="224.7" cy="104.4" r="1.4"/><circle class="st7" cx="226.1" cy="125.8" r="1.4"/><circle class="st7" cx="228.5" cy="148.8" r="1.4"/><circle class="st7" cx="229.9" cy="170.4" r="1.4"/><circle class="st7" cx="231.4" cy="193.4" r="1.4"/><circle class="st7" cx="230.8" cy="216.2" r="1.4"/><path class="st5" d="M188.6 239.3l-.2.5c-2.7 4.5-9.5 7.4-11.6 8.2l-.6-1.1 1.5-6.7 7.5-3.1c1.2.6 2.4 1.3 3.4 2.2z"/><path class="st8" d="M170.3 131.3L164 135l-5.7 25.4s-7.1 21.6-1.6 37l8.6 24.2s2.2 17.5 5.5 19c3.3 1.3 4.8 2.1 4.8 2.1l.6 4.2s9-3 12.2-8.4c3.1-5.4-2.4-18.7-2.4-18.7s-4.7-11.3-3.5-16.6c1.2-5.2-2.4-19.1-2.4-19.4 0-.3-.3-7.7 2.3-13.4 2.7-5.6.9-8 .9-8l-1.7-16.2-11.3-15z"/><path class="st5" d="M298.8 237.5h-.2c-2.1.3-20.6 2.5-20.6-1.3v-1.3l17.1-1.8 3.4 3.5.2.6v.3z"/><path class="st8" d="M281 105.8l12.2 6.4s10 26.1 11.7 37.3c0 0 7.5 30 2.3 42.4-5.1 12.4-4.7 37-4.7 37s-3 4.4-4.2 3.2c-1.2-1.2.5 4.8.5 4.8s-20.8 2.7-20.8-1.4c-.1-4 4.7-23.5 4.7-23.5s1.3-46.3-.5-53.6-1.1-52.6-1.1-52.6z"/><path class="st5" d="M244.9 155.1s-6.9 16.8-9 17.9c-2.3 1 .4 5.5.4 5.5s12.4-17.4 8.6-23.4zM240.8 96.5c0-.3-8.1 8-10.3 9.4s8-.1 10.3-9.4zM218 153.8s-12.6 8.1-11 11.3c1.7 3.3 11-11.3 11-11.3zM240.7 272.2s10.7 6.8 27.3 8.5l-27.3-8.5zM215 288.7s10 12.4 14.5 12.7c4.5.4-14.4-12.7-14.4-12.7zM229 337.4c-.5.2-5.7 11.2-11 11.6-5.2.3 11-11.6 11-11.6zM274.8 361.5s9.8-2.2 12 4.8c0 0-.7-2.2-12-4.8zM268.2 401.7s11.9-2.4 14.4 1c2.5 3.2-14.4-1-14.4-1zM234.6 407.4s-12.1 2.4-11.7 4 13 1.3 13.3-1.2a2.3 2.3 0 00-1.6-2.8zM264.2 417.8s19.9-2.4 18.7 1.8c-1.2 4.1-18.7-1.8-18.7-1.8zM160.2 173c0 .3 13 2 14.8 6.2 0 0-12.7-6-14.7-6M178.4 207s-10.7 3.4-10 8.5c.8 5.1-1-2.4 10-8.6zM173.4 233.1s4-5.4 7.7-4.4-7.7 4.4-7.7 4.4zM223 437.7s3.8 5 2.8 7.8-2.9-7.8-2.9-7.8zM275.5 450.1s.9-6.6 4.3-6.7 3.7-.3 6.3.7c2.7 1 5.1 2.6 4.3 2.8-.7.3-4.5-3.8-8.4-1.7-2.4 1.3-4.6 3-6.5 5zM211.3 98l11-7.7s-16-9.4-17.9-8.1c-1.9 1.3-3.2 13.2-3.2 13.2l10.1 2.5z"/><path class="st9" d="M211.3 97.4l10.9-7.8s-16-9.4-17.8-8c-2 1.3-3.2 13.8-3.2 13.8l10 2z"/><path class="st8" d="M211.3 97.4l10.9-7.8s-16-9.4-17.8-8c-2 1.3-3.2 13.8-3.2 13.8l10 2z"/><path class="st8" d="M206.2 81.6l-.4-.1c-1-.5-2.2-.4-3 .3L170 108.3s-7 9.8-6 26.7l19.2 27.3s2.2-9.2 4.8-7.5c0 0 3.7 47.3 0 54.1-3.7 6.8-5.4 32.4-5.4 32.4l12.7 1.4s1.3-17.3 4.3-23.4c3-6.2 4.5-27.4 4.5-27.4s2.7-30.7 2.3-43.9-4.3-41.6-4.3-41.6 1-16.6 4-24.8z"/><path class="st5" d="M238.7 93L225 88s17.3-18.9 19.5-8.4l-6 13.5z"/><path class="st9" d="M238.7 92.4l-13.6-5s17.3-19 19.5-8.4l-6 13.4z"/><path class="st8" d="M238.7 92.4l-13.6-5s17.3-19 19.5-8.4l-6 13.4z"/><path class="st5" d="M238.2 76.3c.2 0 .4 0 .6.2l-.6-.2z"/><path class="st8" d="M239.5 75l36 7.8s10 2.2 17 27c7.2 25-9.7 55.4-9.7 55.4l-3.7-3.2 1.8 72.6s-16.6 6.2-21.9.8c-5.2-5.5-4.7-31.3-4.7-31.3s-5-47.5-8.2-55.3-1.6-64.2-1.6-64.2-3-10-5-9.6z"/><path class="st5" d="M272.5 121.3a206 206 0 007.3 69.3l-3.3-67s-2.5-3.8-4-2.3zM268 102.4c1 .5 4.8 9.6 3 13.4-1.7 3.7-3-13.4-3-13.4z"/><linearGradient id="SVGID_2_" gradientUnits="userSpaceOnUse" x1="411.4" y1="211.5" x2="411.4" y2="241.8" gradientTransform="matrix(1 0 0 -1 -31.2 402.6)"><stop offset="0" stop-color="gray" stop-opacity=".3"/><stop offset=".5" stop-color="gray" stop-opacity=".1"/><stop offset="1" stop-color="gray" stop-opacity=".1"/></linearGradient><path d="M341.9 163.6l-.3 14.4-5.8-7.7 5.8-9.5.3 2.8zm80.4 27.5l-9.7-3c1.7-2.8 3.7-5.2 6-7.5l.8-.8h-.3l.5-.3.3-.1-.5.4h.6c.6 2.4 1.7 4.6 3.3 6.6 3.5 3.8-1 4.7-1 4.7z" fill="url(#SVGID_2_)"/><path fill="#a27772" d="M363.4 471l-1.2 21.5-7.2-1.8-1.5-9z"/><path class="st5" d="M363.4 471l-1.2 21.5-7.2-1.8-1.5-9z"/><path class="st2" d="M390 495.3l11 2.3 8.2-7.2V470l.2-2.8v-.6l1.5-22.7s11-37.7 12.7-45c1.3-5 .7-20.5.3-29l-.3-6-24.3-5.8-.5 18.7-1.8 65.6c-.1 4.2-1 8.3-2.5 12.2l-.1.3a53.4 53.4 0 00-3.5 17.2l-.9 20.8v2.4z"/><path class="st5" d="M409.4 466.6v.5-.5zM390 495.3l11 2.3 8.2-7.2v-1.7c0 .7-.5 1.4-1.2 1.8h-.1a22 22 0 01-12.4 2.5l-4.3-.3a4 4 0 00-1.2.3v2.3z"/><path class="st4" d="M407.9 491.2v-.1c.8-.4 1.3-1.2 1.3-2l.2-22s2.3-1.7 1.8 6c-.6 7.8-1 19.3-1 19.3s0 12.5-12 12.5c0 0-12 2.3-12-4.5.1-6.9 5-7.2 5-7.2l4.3.4a22 22 0 0012.4-2.4z"/><path class="st2" d="M332.5 490.7c.2 5 14.8 2 14.8 2l9.8-19s8.2-6.3 4-11.8l-.5-1a6 6 0 01-.3-.4c-3-5.8-1.5-15.4-1.5-15.4s3.8-27.8 5.2-35.1c.9-5.2.5-22.2.2-31.7l-.2-6.6-24.2-6.5v7.3c0 6-.3 14.3-.9 19.7-1 9.2 2.7 39.8 2.7 39.8l1.3 27.8c.2 4.7-.9 9.4-3.1 13.5a65 65 0 00-7.3 17.4z"/><path class="st5" d="M332.5 490.7c.2 5 14.8 2 14.8 2l9.8-19s8.2-6.3 4-11.8l-.5-1c-.1 3-3.3 10.2-3.3 10.2s-8.1 16.2-10.7 19.9c-2.5 3.7-13.7-.7-14.1-.9v.6z"/><path class="st4" d="M360.3 460.5s4.8-1.1 3.4 11.3a8 8 0 01-3.8 7.2 27.2 27.2 0 00-11.4 15.7c0 4-2.8 7.5-6.7 8.4-4.3 1-9.7 2-12.8 1-5.8-1.5-3.2-5.5-3.2-5.5l6.7-8s11.6 4.6 14.1 1c2.6-3.8 10.7-20 10.7-20s4.4-10 3-11.1z"/><path class="st3" d="M337 377.2s2.9-7.7 5.5-9.1 2.2 9.1 2.2 9.1 62.9.6 66-4.3 21.4-4.5 21.4-4.5-.5-60.6-2-83.4c-1.4-22.9-3.7-43.7-9.4-50-3.7-4-9-17.2-12.2-26l-3-8.3-59.9 3.5-.5 4.8-6.4 63.7s-.8 70.2-3.4 86.2c-2.6 16 1.7 18.3 1.7 18.3z"/><path d="M337.6 368c1.1-.6 1.7 1.2 2 3.4-1 1.9-2 3.8-2.7 5.8 0 0-1.7-.9-2.3-5.4 1-1.6 2-3.2 3-3.7z"/><path class="st8" d="M355.5 54.3c-4.1 5.6 0 13.7-4.4 19.2-1.4 1.8-3.7 3-5.2 4.9-2.9 3.3-2.8 7.8-1.4 11.7 1.4 3.9 4 7.4 5.7 11.2.8 1.6 1.4 3.5.6 5.1-.6 1.1-1.7 2-2.6 3-2.8 3.2-3 7.6-1.4 11.4 1.6 3.7 4.5 7 7.4 10.2 1.1 1.2 2.6 2.6 4.5 2.6 1-.1 2-.4 2.8-1a28.8 28.8 0 0013.1-37.5c-2.4-5.8-6.4-11.3-6.5-17.4 0-4.9 2.5-9.5 3-14.3.5-5.9-3-15.2-10-17.7.4 3.7-3.4 5.7-5.6 8.6z"/><path class="st5" d="M401.6 260.1c-8.3.4-16.2 4-23.4 8s-14.3 8.7-22.2 11.6M396.4 279.7c-8.2.8-15.9 4.5-21.6 10.5-2 2.1-3.7 4.5-5.8 6.6a26 26 0 01-11.6 6.5M398.1 294.6a37.7 37.7 0 00-17.3 10.5c-1.3 1.3-2.5 2.8-3.7 4.2a68.5 68.5 0 01-26 15"/><path class="st2" d="M397.4 88c.2 6.6.8 13.2 1.7 19.8a26 26 0 003.5 10.7c4.5 5.4-22.3 12.7-22.3 12.7L364.4 119s12.6-11.5 6.7-22.8 26.3-8.2 26.3-8.2z"/><path class="st5" d="M345.1 209h63.4l-3-8.3-60 3.5-.4 4.8z"/><path class="st13" d="M341 207.9h67.8c-2-6.8 0-13.1 2.7-18 2-3.4 4.3-6.5 7.1-9.2l.5-.4 23.6-5.3 1.3-.2s.2-43-15-49c-15.3-5.9-24.4-13.9-24.4-13.9l-21 6.5-15.4-7.8c-5 5.3-18 3.3-18 3.3-21.6 2.4-21.6 18.6-21.6 18.6s12.6 29.3 13.6 29.3-1.2 46-1.2 46z"/><path class="st5" d="M364.4 180.5s-13.8-3-18.5-8.4M434.1 164.5l-16 13.1c0 1 .3 2 .5 3.1l.5-.4 23.6-5.3-8.6-10.5zM390.7 203.3s3.5 2 8.9 4.6h9.2c-2-6.8 0-13.1 2.7-18l-16.2-5.3c5.5 5.2-4.6 18.7-4.6 18.7z"/><path class="st13" d="M338.2 127.4l-9.6 5-9.3 23.7s-9.7 25.9-8.7 32.7c0 0-3.5 16.2 2.6 19l15.9 7.3a1.5 1.5 0 001.9-2c-2.3-4.4-4.8-11-.8-14.7l-4.6-9.6 16.6-27 5.5-9.3-9.5-25.1z"/><path class="st5" d="M359.3 175.1c.8 3.4 3.6 8.6 12.8 10.5l10.1 8.3 10.8 4.9 4.4 2 1.8-13.5-4.2-2.3-4.9-2.7s-11.1-20.1-28.7-11.7a3.9 3.9 0 00-2 4.5z"/><path class="st2" d="M359.9 174c.8 3.3 3.6 8.5 12.8 10.5l10.1 8.2 10.8 5 4.3 1.9 2-13.4-4.3-2.4-4.9-2.6S379.6 161 362 169.6a3.9 3.9 0 00-2.1 4.4z"/><circle class="st5" cx="379.7" cy="80.8" r="24.6"/><circle class="st2" cx="379.7" cy="80.2" r="24.6"/><path class="st5" d="M395 132.7l-7.5-14.3s10.8-4.4 11.6-9.5 10.4 6 8.3 9.6c-2 3.6-12.5 14.2-12.5 14.2z"/><path class="st13" d="M395 131.6l-7.5-14.4s10.8-4.4 11.6-9.4 10.4 6 8.3 9.6c-2 3.6-12.5 14.2-12.5 14.2z"/><path d="M334.5 168.6l40.8 54.9s-15 8.2-35.8-6.5l-9-10.6-25.5-43.1 29.5 5.3z" fill="#f6f8fb"/><path class="st2" d="M326.5 198.5l3.7-.1s22.7-22 28.2-11c5.6 11.2-14.1 21.6-14.1 21.6l-6 3.3-7.8 2.3-5-6.7 1-9.4z"/><path class="st5" d="M332 210.4c.3 1.2.6 2.6 0 3.8-.1.3-.4.6-.7.7-.2.1-.5.2-.7.1-2-.1-3.8-1-5.2-2.5-1.3-1.4-2.4-3-3.3-4.8-1-1.8-2-3.7-1.7-5.7.4-2.2 2.4-3.7 4.2-5 3.8-2.4 4 .5 4.8 3.7l2.5 9.7z"/><path class="st13" d="M331.4 210.4c.3 1.2.6 2.6 0 3.8 0 .3-.3.6-.6.7-.3.1-.5.2-.8.1-2-.1-3.8-1-5.1-2.5-1.3-1.4-2.4-3-3.3-4.8-1-1.8-2.1-3.7-1.7-5.7.4-2.2 2.3-3.7 4.2-5 3.7-2.4 3.9.5 4.7 3.7l2.6 9.7z"/><path class="st5" d="M342.2 161.8l1.9-3.2-1.7 6zM393.6 197.6l4.4 2 1.8-13.4-4.2-2.4c3 3.4.4 9.6-2 13.8zM411.2 182s-14.2.9-20.2-3"/><g class="st12"><path d="M349.2 115.1l1.1-.1a42.4 42.4 0 01-1.1.1zM381.6 119.5l-14-7 .8-.8 14.5 7.4-1.3.4z"/></g><path class="st13" d="M434.7 163.3l9.3 11.4 1.9 31s2.5 15.8-15.6 12-39-15.5-39-15.5 10-13.6 4.5-18.7l26 8.4s4.3-1 .9-4.8-4-10.6-4-10.6l16-13.2z"/><path class="st5" d="M438.9 196l5.1 6a7.4 7.4 0 01-5.1-6zM430.1 195.1l8 10.3-4 1z"/><path class="st8" d="M350.4 67.8c-.9-2.1-.2-4.6.8-6.7 1-2 2.5-4 3.3-6.1 1.2-3.3.9-7 2.1-10.1 2.3-5.7 8.7-8.2 14.5-10.1 1.7-.6 3.5-1.2 5.2-.7 2.4.5 3.9 2.6 5.8 4 7.8 5.9 20.5-.5 28 5.6 3 2.4 4.4 6.2 4.8 9.9s0 7.5 0 11.2c-.1 6.5 1 13.7 6 18 1.5 1.3 3.2 2.3 4.6 3.7 1.5 1.3 2.6 3.2 2.4 5.2a18 18 0 01-.8 2.6c-1 3.4.5 7 2.3 10.1 5.3 9.1 14.5 16.7 25.1 17-.7 5.3-6.2 8.3-11.2 10.5-6.2 2.8-12.8 5.6-19.6 5.2s-14-4.7-15.2-11.5c-.4-2.3-.4-5.1-2.4-6.3-1.2-.8-2.7-.6-4-1.1-2-.8-2.9-3-3.5-4.9-1.3-4-2-8.2-2-12.4-.1-5 .5-10.5-2.3-14.6-2.6-3.8-7.3-5.8-10.3-9.3-2.8-3.2-5.8-7.1-10.4-7.7-6.4-1-19.5 7.7-23.2-1.5z"/><path class="st5" d="M367.8 131l14-11.5s-9.6-5.2-10.7-9.7c-1.2-4.4-8.9 2.1-8 6.1.7 4 4.7 15 4.7 15z"/><path class="st13" d="M368.4 129.2l14-11.4s-9.6-5.2-10.7-9.7-8.9 2.1-8 6.1c.7 4 4.7 15 4.7 15z"/><circle class="st5" cx="383" cy="127.3" r="1.1"/><circle class="st5" cx="383" cy="133.6" r="1.1"/><circle class="st5" cx="383" cy="139.8" r="1.1"/><path d="M356 52c1.2-3.1 1-6.5 2-9.6-.5.7-1 1.4-1.2 2.2-1.3 3.2-1 6.9-2.1 10l-.1.3 1.5-3z"/><linearGradient id="SVGID_3_" gradientUnits="userSpaceOnUse" x1="-408" y1="134.7" x2="-408" y2="198.8" gradientTransform="rotate(180 -123.7 201.3)"><stop offset="0" stop-color="gray" stop-opacity=".3"/><stop offset=".5" stop-color="gray" stop-opacity=".1"/><stop offset="1" stop-color="gray" stop-opacity=".1"/></linearGradient><path d="M158.4 267.7v-.1l-.4.2h-.1l-.1.1-6-21.3a35.4 35.4 0 01-.5-17.5l4.7-20.4v-5l14.8 39.6c1 5.3-7.8 18.2-12.4 24.4z" fill="url(#SVGID_3_)"/><path class="st2" d="M165 332s-6 14.5-7.6 28.5c-.5 5-1.3 9.6-2 13.4-1.5 8.5-2.1 17.2-1.9 25.8l.2 3.7 1.9 9.6s4.7 30.9-8.2 53.6c0 0-7.7 13.6-7.9 20l-5.2 2-10.4-2.8s5-18.1 3.4-30.8l1-41.2s-6.8-10.3-7-29l-4-51.2 47.6-1.6zM117.2 324.7s-1.2 20-11.1 33.7-12 19.7-12 19.7L82 402.7a14 14 0 00-1.2 9.2l1.2 5.5s6.6 22.4-.1 39.6l-3.2 33.4H60.2s-1.6-27.7-2.3-30.1c-.6-2.3-4.4-47.8-4.4-47.8s-7.8-10.6-.6-26.9c0 0 16.2-61 20.5-60 4.4 1 43.8-1 43.8-1z"/><path class="st16" d="M131.7 486.5a9 9 0 008.5-1c-1.7 5-2 10.3-.7 15.4 2.1 8.5-19.7-6.8-19.7-6.8l4.7-10.6s1.8 3.3 7.2 3z"/><path class="st2" d="M133.3 487c2.4.4 5-.1 7-1.6-1.8 5-2 10.4-.8 15.5 2.2 8.5-19.7-6.8-19.7-6.8l4.7-10.7s1.3 2.6 5.3 3c1.2.2 2.4.3 3.5.6z"/><path class="st17" d="M82.1 289h9.1v-51.8l-6.8-1.3z"/><path class="st18" d="M82.1 289h9.1v-51.8l-6.8-1.3z"/><path class="st19" d="M126.5 490.5s5.8-.4 8.3 4.8l3.2 2.5 1.6-3.7c3.3 6 4.6 12.9 3.6 19.6 0 0 .4 3.3-4.4 4.8 0 0-2.5 1.2-1.9 5.7s-8.7 11-20.7 8.3c0 0-10.6.3-12-2.2-1.2-2.5 1-9 1-9s4.3-7 6.2-9.5c0 0 5.2-10.6 5.8-15.5.6-5 6.3-8.5 9.3-5.8z"/><path class="st16" d="M78.9 494.8v-7.3s-10.4 3-19-.4c0 0 .8 7.4-.4 8.4-1.2 1 4 10.4 4 10.4l5.7 6 9.8-3.6 2.7-8.4s-2.1-5-2.8-5z"/><path class="st2" d="M78.9 494.8v-7.3s-10.4 3-19-.4c0 0 .8 7.4-.4 8.4-1.2 1 4 10.4 4 10.4l5.7 6 9.8-3.6 2.7-8.4s-2.1-5-2.8-5z"/><path class="st19" d="M58.9 492.2s5.6.6 4.8 7.8.3 0 .3 0 6 2.4 8 5.7 6-3 6.3-4.8 2.7-2.6 2.7-2.6 9.3 17.3 7.7 22c-1.7 4.8-21.7 6-21.7 6s-3.7-2.1-12 4.3C46.4 537 29 532 29 532s-14.2-5.9-5.6-12.4c8.7-6.5 14.5-5.5 14.5-5.5L51 501.8s1.7-10 8-9.6z"/><path class="st20" d="M125.5 83.3c3.6 2.2 6.1 5.7 9.5 8 4.8 3.5 11.2 4.8 14.9 9.5 3 3.9 3.5 9.4 2.6 14.3-.8 5-2.7 9.7-3.6 14.7-.9 5-.7 10.4 2.2 14.5.4.5.9 1 1.5 1.2.7.2 1.4.2 2.1 0 5-.6 9.9 3 12.1 7.5s2.5 9.8 2.2 14.9c-.2 4.1-.6 8.4-2.5 12.1-3 6.3-9.5 10.3-16 13.3-4 2-8.3 3.6-12.7 5.1-3 1-6 2-9.2 1.4-5.3-1-9-5.7-14.1-7.6-4.1-1.6-8.7-1-13.1-.6-3.7.3-8 .3-10.6-2.5-3.3-3.5-1.8-9.1-.1-13.7a9.8 9.8 0 01-7-16c1.7-1.9 4.2-4.1 3-6.3-.5-.7-1-1.2-1.7-1.5-5-2.9-12-4-14.2-9.5-1.3-3.5 0-7.4 1.7-10.7s3.9-6.6 4.4-10.3c.6-5.3-2.4-10.7-.9-15.7.8-2.2 2-4.2 3.7-5.8a50 50 0 0116.3-12c6.1-2.8 12.3-3.4 18.8-4.8 3.9-.8 7-1.7 10.7.5z"/><path class="st17" d="M91.2 161.6s-14.8-.8-17.6 11.9c-2.9 12.6 6 30.8 6 30.8l11.6-42.7z"/><path class="st2" d="M91.2 161.6s-14.8-.8-17.6 11.9c-2.9 12.6 6 30.8 6 30.8l11.6-42.7z"/><path class="st2" d="M81.7 199.3l5.7 4.4 26.3 1.2 16.4-11.3 16.7-28.6a20.6 20.6 0 01-15.9-16.2c-1-4.5-1-9.1-.3-13.6 0 0-26.8-13.9-23.5 7.8.5 2.6.5 5.3.3 8-1.6 12.7-13.9 10.3-13.9 10.3l-4.7 7.3-5.4 17.8-1.7 12.9z"/><path class="st5" d="M107.1 143c.5 2.6.6 5.3.3 8a23.7 23.7 0 0023.5-2.2c-1-4.5-1-9.1-.3-13.6 0 0-26.8-13.9-23.5 7.7z"/><circle class="st2" cx="117.2" cy="128.4" r="23.7"/><path class="st13" d="M125.7 187c8.3-9.8 19.3-22 19.7-22.5l11.3 3.4s-9-3.2-14.8 13.3A17.1 17.1 0 00155 204v7.3l-4.6 20.2a35 35 0 00.4 17.3l7 24.7c-1 .8-44.4 30.3-73.4 9.9 0-.9 3.7-30 1.2-44.1a98 98 0 01-1.3-11v-.3c-.3-3.2-1.8-6.2-4.3-8.4-2.6-2.3-6.1-8.5-2.6-25 .9-4 2.2-8 3.9-11.8l9.7-22 6.4.2s-5.8 13.4-7 17.5c-5.5 18.2 23.9 22.1 35.3 8.6zm-38-3.6"/><path class="st2" d="M164.2 171.7s8.8 7.5 12.2 24.6 11.1 45.4 11.1 45.4 3.1 12.4-7.5 24.6c-10.6 12.2-17.7 21.8-17.7 21.8l-7 10.3c-1.2 1.7-3 3-5 3.5a17 17 0 01-12.3-.9 7.2 7.2 0 01-3.2-9l1.6-3.6s-14.4 9-15.7 4c-1.2-5 16.8-10 16.8-10s14.9-2.5 17.9-9.5c0 0 16-20.5 14.7-27.6L154.7 204s-19.3-2.6-12.7-24.2c6.5-21.7 22.2-8 22.2-8z"/><path class="st21" d="M72 327.7s35.2 7 43.5 6l1 3s13.3 3 43.5-1.8l6.2-1 .7-.1s.4-2.3.7-6c.7-8.8 1-25.5-5.1-42.7l-5.1-15.7s-31.4 18.9-52.2 17.1c-1.9-.1-3.7-.3-5.6-.3-4.2-.2-10.9 0-15.2-3.5l-9 1.6v25.6a30.7 30.7 0 01-2.6 12.6 8.2 8.2 0 00-.8 5.2z"/><path class="st5" d="M116.4 328.8v8s15.4 3.4 50.5-3c0 0 .4-2.3.7-6-10.8 1.6-40.4 5.8-51.2 1z"/><path class="st5" d="M72 327.7s35.2 7 43.5 6l1 3v-8c-4.1 1.7-32.7-5.2-43.1-7.8l-.6 1.6c-.9 1.6-1.1 3.4-.8 5.2z"/><path class="st21" d="M157.4 318.8L160 335l6.2-1c-.9-4.8-2.6-15.6-2.2-17.4l-3.2-2.8-3.4 5z"/><path class="st5" d="M157.8 318.4l2.6 16.2 6.1-1c-.8-4.8-2.6-15.6-2-17.4l-3.4-2.8-3.3 5z"/><g opacity=".1"><path d="M103.3 286.5c-1.9-.1-3.7-.3-5.6-.3-4.1-.2-10.5 0-14.8-3.2l1.5-.3c4.4 3.4 11 3.3 15.2 3.5a111.1 111.1 0 013.7.3zM158.1 335l6.2-1.1.7-.1s.4-2.3.7-6c.7-8.8 1-25.5-5.1-42.7l-4.8-14.8 1.6-.9 5 15.7a105 105 0 015.2 42.6c-.4 3.8-.8 6-.8 6l-.7.2-6.1 1a193.6 193.6 0 01-31.7 2.7c10-.1 20-1 29.8-2.7zM113.6 333.8h-1 1z"/></g><ellipse class="st16" cx="161.8" cy="319" rx="1.3" ry="2.7"/><path class="st17" d="M77 263.6a91 91 0 017.9-29l.3 2.6c.4 2.3 0 5.3.2 8.2l-2 36 2.7 11.3c2.5 9-6.8 1.9-6.8 1.9-2 4.2-5.4 3.8-5.4 3.8l-.5-6.5c-.5-6.1 0-12.2 1.6-18.1.8-3.4 1.5-6.8 2-10.2z"/><path class="st2" d="M77 263.6a91 91 0 017.9-29l.3 2.6c.4 2.3 0 5.3.2 8.2l-2 36 2.7 11.3c2.5 9-6.8 1.9-6.8 1.9-2 4.2-5.4 3.8-5.4 3.8l-.5-6.5c-.5-6.1 0-12.2 1.6-18.1.8-3.4 1.5-6.8 2-10.2zM166.2 283l-2.7 3.5-7 10.3c-1.1 1.8-3 3-5 3.6a17 17 0 01-12.3-.9 7.2 7.2 0 01-3.1-9l1.5-3.7S123.2 296 122 291c-1.3-5 16.7-10 16.7-10s14.9-2.5 17.9-9.6l3.1-4.2"/><path class="st21" d="M157.4 300.3s-17-1.6-22.4-11.4l-2.5 8.1s17.9 12.3 22 10.7l2.9-7.4z"/><path class="st5" d="M156.8 300.3s-17-1.7-22.4-11.4l-2.5 8s17.9 12.3 22 10.7l2.9-7.3z"/><path class="st21" d="M79.9 295.8s-6 2.1-7.2 1l2.7 4.9 5-4-.5-1.9z"/><path class="st5" d="M79.9 295.8s-6 2.1-7.2 1l2.7 4.9 5-4-.5-1.9zM116.4 328.8v-10.3L114 329zM140.6 116c-1.5 2-4 3-6.4 3.3-2.5.3-5 0-7.5 0-3.8 0-8 .5-11.2 2.8-2 1.5-3.5 3.5-5.1 5.5-4.8 5.8-11.5 11.3-19 10.7a5 5 0 01-3.6-1.5c-.6-1-1-2-.9-3.2-.3-4.8-.2-9.7.5-14.5.3-3 1-5.9 2.2-8.7 1.3-2.7 3.1-5.3 5.2-7.5 2.6-3 5.7-5.5 9.2-7.4 3.6-1.8 7.7-2.4 11.5-1.4 4.6 1.2 8.1 4.7 12.4 6.6 5 2 18 7.6 12.7 15.2z"/><path class="st20" d="M140.6 115c-1.5 2-4 3-6.4 3.4-2.5.3-5 0-7.5 0-3.8-.1-8 .5-11.2 2.8-2 1.4-3.5 3.5-5.1 5.4-4.8 5.9-11.5 11.4-19 10.8-1.4 0-2.7-.6-3.6-1.5-.6-1-1-2.1-.9-3.3-.3-4.8-.2-9.7.5-14.5.3-3 1-5.9 2.2-8.6 1.3-2.8 3.1-5.3 5.2-7.5 2.6-3 5.7-5.5 9.2-7.4 3.6-1.9 7.7-2.4 11.5-1.5 4.6 1.2 8.1 4.8 12.4 6.6 5 2.1 18 7.6 12.7 15.3z"/><path class="st17" d="M84.4 282.7v2.8l-.7-2.7z"/><path class="st18" d="M84.4 282.7v2.8l-.7-2.7z"/><g class="st12"><path d="M144.7 198l3.1 3c2.2 1.5 4.7 2.6 7.4 3v.8a16.1 16.1 0 01-10.4-6.9zM85 229v.2c.3 3.7.8 7.4 1.4 11 2.3 13.5-.7 40-1.1 43.7l-.8-.5c0-.8 3.7-29.9 1.2-44-.6-3.7-1-7.4-1.3-11v-.3a12 12 0 00-2.1-6 12 12 0 012.8 6.9zM100 161c0 .2-.3.5-.6.9l.6-.8zM156.7 167.9h.1-.1zM153.9 167.7l-7.6-2.3"/></g><path class="st5" d="M63.7 503.5s-10.7 3-12.8-1.7M131.8 501.3s-12.4 3.2-15.3-1.8"/><path class="st8" d="M237.3.1a5 5 0 01-2.3 3l4.6-.9c.4 1.3-9.2 7-9.6 8.2 5.5-1.6 12.1 6.8 15.2 13.5s3.6 14.2 3.8 21.5c.1 3-1 7.1-3.4 6-.8-2.5-1.6-5-3.1-6.9-1.6-1.9-4-2.9-5.6-1.6-.7-5.4-5.5-9.5-9.9-10-4.3-.6-8.3 1.5-12 3.5-4.2 2.2-8.4 4.6-11 9-5 8.9-1.3 22.1 1.9 33.6-3.7-2.7-8.7-7.2-11.9-4.2l-.7-10.5c0-1.2-1.6-2.7-1.5-1.5.1-2.6-.2-5.4-1-8l-1.8 1.7c-4.8-9.3-6.6-21-3.8-30.3 4.6-15.3 16-17.8 22-19.3.6-.2 30.6-8 30.1-6.8z"/></svg>